<svg width="390" height="703" viewBox="0 0 390 703" fill="none" xmlns="http://www.w3.org/2000/svg">
<path d="M82.9043 334.805C81.4362 338.439 80.7021 341.966 80.7021 345.386C80.7021 347.033 80.8543 348.698 81.1587 350.381C81.4631 352.046 81.9375 353.747 82.582 355.483C81.5615 355.233 80.6126 355.045 79.7354 354.919C78.8581 354.794 77.9897 354.731 77.1304 354.731C76.2173 354.731 75.2863 354.812 74.3374 354.973C73.3885 355.134 72.359 355.385 71.249 355.725L72.3501 351.428C71.992 352.001 71.5623 352.592 71.061 353.201C70.5597 353.792 69.96 354.329 69.2617 354.812C68.5814 355.295 67.7936 355.689 66.8984 355.994C66.0212 356.316 65.0096 356.477 63.8638 356.477C62.145 356.477 60.5605 356.065 59.1104 355.242C57.6781 354.418 56.4427 353.228 55.4043 351.67C54.3659 350.112 53.5513 348.206 52.9604 345.95C52.3875 343.676 52.1011 341.098 52.1011 338.215C52.1011 336.3 52.2801 334.402 52.6382 332.522C52.9963 330.624 53.5155 328.825 54.1958 327.124C54.8761 325.405 55.7176 323.821 56.7202 322.371C57.7228 320.903 58.8597 319.64 60.1309 318.584C61.402 317.51 62.8075 316.677 64.3472 316.086C65.9048 315.478 67.5788 315.173 69.3691 315.173C70.9984 315.173 72.4217 315.343 73.6392 315.684C74.8566 316.006 75.9129 316.444 76.8081 317C77.7033 317.537 78.4373 318.163 79.0103 318.879C79.6011 319.578 80.0666 320.312 80.4067 321.082C80.7469 321.851 80.9886 322.621 81.1318 323.391C81.2751 324.143 81.3467 324.85 81.3467 325.513C81.3467 326.462 81.1766 327.375 80.8364 328.252C80.5142 329.129 80.0576 329.899 79.4668 330.562C78.876 331.224 78.1777 331.752 77.3721 332.146C76.5664 332.54 75.6802 332.737 74.7134 332.737C73.7108 332.737 72.8424 332.585 72.1084 332.28C71.3743 331.976 70.7656 331.582 70.2822 331.099C69.7988 330.597 69.4318 330.042 69.1812 329.434C68.9484 328.825 68.832 328.216 68.832 327.607C68.832 327.088 68.9215 326.56 69.1006 326.023C69.2796 325.486 69.5303 324.985 69.8525 324.519C69.96 324.895 70.1121 325.19 70.3091 325.405C70.506 325.602 70.703 325.745 70.8999 325.835C71.1147 325.942 71.3564 326.005 71.625 326.023C72.2337 326.023 72.6634 325.871 72.9141 325.566C73.1826 325.262 73.3169 324.913 73.3169 324.519C73.3169 324.34 73.2721 324.161 73.1826 323.982C73.111 323.785 72.9946 323.606 72.8335 323.445C72.6724 323.284 72.4575 323.149 72.189 323.042C71.9383 322.935 71.625 322.881 71.249 322.881C70.9984 322.881 70.6493 322.935 70.2017 323.042C69.772 323.132 69.2975 323.319 68.7783 323.606C68.277 323.892 67.7668 324.304 67.2476 324.841C66.7284 325.361 66.2539 326.059 65.8242 326.936C65.3945 327.813 65.0454 328.888 64.7769 330.159C64.5083 331.43 64.374 332.943 64.374 334.697C64.374 336.147 64.4904 337.419 64.7231 338.511C64.9738 339.603 65.314 340.516 65.7437 341.25C66.1733 341.984 66.6836 342.539 67.2744 342.915C67.8652 343.273 68.5098 343.452 69.208 343.452C69.8704 343.452 70.4165 343.282 70.8462 342.942C71.2759 342.602 71.616 342.19 71.8667 341.707C72.1174 341.223 72.2874 340.722 72.377 340.203C72.4665 339.683 72.5112 339.245 72.5112 338.887C72.5112 338.869 72.4933 338.743 72.4575 338.511C72.4396 338.278 72.359 338.009 72.2158 337.705C72.0726 337.401 71.8398 337.087 71.5176 336.765C71.1953 336.443 70.7388 336.174 70.1479 335.959C72.2606 335.959 74.3822 335.87 76.5127 335.691C78.6432 335.494 80.7738 335.199 82.9043 334.805ZM112.915 355.376C112.575 355.34 112.181 355.304 111.733 355.269C111.357 355.233 110.901 355.206 110.363 355.188C109.844 355.17 109.271 355.161 108.645 355.161C107.75 355.161 106.765 355.197 105.691 355.269C104.634 355.34 103.542 355.474 102.414 355.671L102.522 348.125C101.841 350.793 100.839 352.852 99.5139 354.302C98.2069 355.752 96.6672 356.477 94.8947 356.477C94.3397 356.477 93.7131 356.405 93.0148 356.262C92.3166 356.119 91.6005 355.841 90.8664 355.43C90.1503 355.036 89.4431 354.481 88.7448 353.765C88.0645 353.049 87.4558 352.126 86.9187 350.999C86.3815 349.853 85.9519 348.474 85.6296 346.863C85.3073 345.234 85.1462 343.309 85.1462 341.089C85.1462 338.081 85.4506 335.512 86.0593 333.381C86.668 331.233 87.4468 329.478 88.3957 328.118C89.3446 326.757 90.392 325.763 91.5378 325.137C92.6836 324.51 93.8026 324.197 94.8947 324.197C95.8257 324.197 96.6672 324.331 97.4191 324.6C98.189 324.85 98.8693 325.181 99.4602 325.593C100.051 325.987 100.561 326.435 100.991 326.936C101.421 327.437 101.77 327.939 102.038 328.44C101.985 327.831 101.904 327.187 101.797 326.506C101.689 325.808 101.564 325.092 101.421 324.358C102.584 324.591 103.766 324.743 104.966 324.814C106.165 324.886 107.275 324.922 108.296 324.922C109.513 324.922 110.498 324.895 111.25 324.841C111.679 324.823 112.073 324.797 112.431 324.761C112.234 325.656 112.055 326.659 111.894 327.769C111.733 328.879 111.59 330.069 111.465 331.34C111.357 332.594 111.268 333.918 111.196 335.315C111.142 336.694 111.115 338.108 111.115 339.558C111.115 342.262 111.25 344.974 111.518 347.695C111.787 350.417 112.252 352.977 112.915 355.376ZM101.877 339.988V335.637C101.877 335.154 101.85 334.661 101.797 334.16C101.743 333.659 101.618 333.202 101.421 332.791C101.242 332.379 100.973 332.048 100.615 331.797C100.257 331.528 99.7735 331.394 99.1647 331.394C98.5202 331.394 97.9831 331.618 97.5534 332.065C97.1416 332.513 96.8015 333.131 96.5329 333.918C96.2823 334.688 96.1032 335.61 95.9958 336.685C95.9063 337.741 95.8615 338.896 95.8615 340.149C95.8615 340.865 95.9063 341.59 95.9958 342.324C96.1032 343.058 96.2733 343.73 96.5061 344.338C96.7388 344.929 97.0521 345.413 97.446 345.789C97.8399 346.165 98.3233 346.353 98.8962 346.353C99.5407 346.353 100.06 346.129 100.454 345.681C100.848 345.234 101.143 344.679 101.34 344.016C101.555 343.354 101.698 342.664 101.77 341.948C101.841 341.214 101.877 340.561 101.877 339.988ZM143.65 355.537C143.095 355.448 142.487 355.385 141.824 355.349C141.162 355.331 140.472 355.322 139.756 355.322C138.897 355.322 138.02 355.34 137.124 355.376C136.247 355.43 135.388 355.492 134.546 355.564C133.705 355.636 132.908 355.716 132.156 355.806C131.404 355.895 130.751 355.976 130.196 356.047C130.966 353.451 131.556 350.676 131.968 347.722C132.398 344.768 132.613 341.492 132.613 337.893C132.613 337.625 132.604 337.266 132.586 336.819C132.586 336.371 132.568 335.888 132.532 335.369C132.496 334.849 132.434 334.33 132.344 333.811C132.273 333.274 132.156 332.791 131.995 332.361C131.852 331.931 131.664 331.582 131.431 331.313C131.198 331.045 130.912 330.911 130.572 330.911C130.07 330.911 129.578 331.09 129.095 331.448C128.629 331.806 128.208 332.28 127.832 332.871C127.474 333.462 127.179 334.142 126.946 334.912C126.731 335.682 126.624 336.479 126.624 337.302C126.624 338.788 126.66 340.301 126.731 341.841C126.803 343.363 126.919 344.875 127.08 346.379C127.242 347.883 127.447 349.36 127.698 350.811C127.949 352.243 128.262 353.604 128.638 354.893C128.334 354.875 127.976 354.848 127.564 354.812C127.206 354.794 126.785 354.776 126.302 354.758C125.818 354.74 125.263 354.731 124.637 354.731C123.473 354.731 122.13 354.785 120.608 354.893C119.086 354.982 117.439 355.161 115.667 355.43C115.882 354.427 116.07 353.201 116.231 351.75C116.392 350.3 116.526 348.725 116.634 347.024C116.741 345.323 116.822 343.551 116.875 341.707C116.947 339.845 116.983 338.009 116.983 336.201C116.983 334.858 116.965 333.542 116.929 332.253C116.893 330.964 116.84 329.747 116.768 328.601C116.714 327.455 116.634 326.399 116.526 325.432C116.419 324.465 116.294 323.633 116.15 322.935C117.6 323.185 118.943 323.364 120.179 323.472C121.414 323.561 122.533 323.606 123.536 323.606C124.18 323.606 124.753 323.597 125.254 323.579C125.774 323.543 126.212 323.507 126.57 323.472C127 323.418 127.376 323.364 127.698 323.311C127.591 323.866 127.483 324.456 127.376 325.083C127.286 325.71 127.197 326.39 127.107 327.124C127.698 326.372 128.325 325.719 128.987 325.164C129.65 324.591 130.312 324.116 130.975 323.74C131.655 323.364 132.326 323.087 132.989 322.908C133.651 322.711 134.278 322.612 134.869 322.612C136.158 322.612 137.268 322.881 138.199 323.418C139.148 323.937 139.926 324.761 140.535 325.889C141.162 327.017 141.627 328.458 141.932 330.212C142.236 331.967 142.388 334.071 142.388 336.523C142.388 338.206 142.388 339.916 142.388 341.653C142.406 343.389 142.451 345.09 142.522 346.755C142.594 348.42 142.719 350.005 142.898 351.509C143.077 352.995 143.328 354.338 143.65 355.537ZM173.902 355.376C173.562 355.34 173.168 355.304 172.721 355.269C172.345 355.233 171.888 355.206 171.351 355.188C170.832 355.17 170.259 355.161 169.632 355.161C168.737 355.161 167.753 355.197 166.678 355.269C165.622 355.34 164.53 355.474 163.402 355.671L163.509 348.125C162.829 350.793 161.826 352.852 160.502 354.302C159.195 355.752 157.655 356.477 155.882 356.477C155.327 356.477 154.701 356.405 154.003 356.262C153.304 356.119 152.588 355.841 151.854 355.43C151.138 355.036 150.431 354.481 149.733 353.765C149.052 353.049 148.443 352.126 147.906 350.999C147.369 349.853 146.94 348.474 146.617 346.863C146.295 345.234 146.134 343.309 146.134 341.089C146.134 338.081 146.438 335.512 147.047 333.381C147.656 331.233 148.435 329.478 149.383 328.118C150.332 326.757 151.38 325.763 152.525 325.137C153.671 324.51 154.79 324.197 155.882 324.197C156.813 324.197 157.655 324.331 158.407 324.6C159.177 324.85 159.857 325.181 160.448 325.593C161.039 325.987 161.549 326.435 161.979 326.936C162.408 327.437 162.757 327.939 163.026 328.44C162.972 327.831 162.892 327.187 162.784 326.506C162.677 325.808 162.552 325.092 162.408 324.358C163.572 324.591 164.754 324.743 165.953 324.814C167.153 324.886 168.263 324.922 169.283 324.922C170.501 324.922 171.485 324.895 172.237 324.841C172.667 324.823 173.061 324.797 173.419 324.761C173.222 325.656 173.043 326.659 172.882 327.769C172.721 328.879 172.578 330.069 172.452 331.34C172.345 332.594 172.255 333.918 172.184 335.315C172.13 336.694 172.103 338.108 172.103 339.558C172.103 342.262 172.237 344.974 172.506 347.695C172.775 350.417 173.24 352.977 173.902 355.376ZM162.865 339.988V335.637C162.865 335.154 162.838 334.661 162.784 334.16C162.731 333.659 162.605 333.202 162.408 332.791C162.229 332.379 161.961 332.048 161.603 331.797C161.245 331.528 160.761 331.394 160.152 331.394C159.508 331.394 158.971 331.618 158.541 332.065C158.129 332.513 157.789 333.131 157.521 333.918C157.27 334.688 157.091 335.61 156.983 336.685C156.894 337.741 156.849 338.896 156.849 340.149C156.849 340.865 156.894 341.59 156.983 342.324C157.091 343.058 157.261 343.73 157.494 344.338C157.726 344.929 158.04 345.413 158.434 345.789C158.828 346.165 159.311 346.353 159.884 346.353C160.528 346.353 161.048 346.129 161.442 345.681C161.835 345.234 162.131 344.679 162.328 344.016C162.543 343.354 162.686 342.664 162.757 341.948C162.829 341.214 162.865 340.561 162.865 339.988ZM204.262 355.376C203.85 355.34 203.385 355.304 202.866 355.269C202.418 355.233 201.89 355.206 201.281 355.188C200.69 355.17 200.037 355.161 199.321 355.161C198.3 355.161 197.217 355.197 196.071 355.269C194.925 355.34 193.788 355.474 192.66 355.671C192.768 355.457 192.884 355.009 193.01 354.329C193.135 353.648 193.251 352.896 193.359 352.073C193.484 351.249 193.591 350.435 193.681 349.629C193.788 348.823 193.869 348.197 193.923 347.749C193.636 349.092 193.233 350.318 192.714 351.428C192.213 352.52 191.622 353.46 190.942 354.248C190.261 355.018 189.5 355.618 188.659 356.047C187.818 356.477 186.931 356.692 186 356.692C185.571 356.692 185.042 356.665 184.416 356.611C183.789 356.558 183.118 356.379 182.402 356.074C181.703 355.77 180.996 355.304 180.28 354.678C179.582 354.033 178.946 353.138 178.373 351.992C177.818 350.828 177.362 349.36 177.004 347.588C176.664 345.815 176.493 343.649 176.493 341.089C176.493 338.94 176.646 337.025 176.95 335.342C177.272 333.641 177.693 332.146 178.212 330.857C178.749 329.568 179.367 328.476 180.065 327.581C180.781 326.667 181.524 325.924 182.294 325.352C183.082 324.779 183.879 324.367 184.684 324.116C185.508 323.848 186.296 323.713 187.048 323.713C187.889 323.713 188.65 323.857 189.33 324.143C190.011 324.412 190.628 324.77 191.183 325.217C191.738 325.647 192.222 326.148 192.634 326.721C193.045 327.276 193.403 327.831 193.708 328.386C193.672 327.563 193.636 326.667 193.6 325.701C193.565 324.734 193.52 323.758 193.466 322.773C193.412 321.789 193.341 320.822 193.251 319.873C193.18 318.906 193.09 318.011 192.983 317.188C192.893 316.364 192.786 315.639 192.66 315.012C192.535 314.386 192.392 313.911 192.231 313.589C193.663 313.84 194.997 314.01 196.232 314.099C197.468 314.189 198.587 314.233 199.589 314.233C200.234 314.233 200.816 314.224 201.335 314.207C201.854 314.171 202.293 314.135 202.651 314.099C203.08 314.063 203.456 314.019 203.779 313.965C203.582 314.86 203.403 316.033 203.242 317.483C203.08 318.915 202.937 320.535 202.812 322.344C202.704 324.152 202.615 326.095 202.543 328.171C202.49 330.23 202.463 332.334 202.463 334.482C202.463 336.47 202.49 338.448 202.543 340.417C202.615 342.387 202.722 344.285 202.866 346.111C203.009 347.919 203.197 349.62 203.429 351.213C203.662 352.789 203.94 354.176 204.262 355.376ZM193.224 339.988V335.637C193.224 335.154 193.198 334.661 193.144 334.16C193.09 333.659 192.965 333.202 192.768 332.791C192.589 332.379 192.32 332.048 191.962 331.797C191.604 331.528 191.121 331.394 190.512 331.394C190.082 331.394 189.715 331.564 189.411 331.904C189.107 332.244 188.856 332.683 188.659 333.22C188.462 333.757 188.301 334.357 188.176 335.02C188.05 335.682 187.961 336.344 187.907 337.007C187.853 337.651 187.818 338.26 187.8 338.833C187.782 339.388 187.773 339.827 187.773 340.149C187.773 340.632 187.791 341.232 187.826 341.948C187.88 342.646 187.988 343.327 188.149 343.989C188.31 344.634 188.552 345.189 188.874 345.654C189.214 346.12 189.671 346.353 190.243 346.353C190.888 346.353 191.407 346.129 191.801 345.681C192.195 345.234 192.49 344.679 192.687 344.016C192.902 343.354 193.045 342.664 193.117 341.948C193.189 341.214 193.224 340.561 193.224 339.988ZM232.205 339.316C232.205 340.355 232.124 341.501 231.963 342.754C231.802 343.989 231.533 345.243 231.157 346.514C230.781 347.767 230.271 348.993 229.626 350.193C228.982 351.375 228.176 352.422 227.209 353.335C226.261 354.248 225.124 354.982 223.799 355.537C222.474 356.092 220.934 356.37 219.18 356.37C217.425 356.37 215.885 356.11 214.561 355.591C213.254 355.072 212.126 354.382 211.177 353.523C210.246 352.646 209.476 351.643 208.867 350.515C208.258 349.369 207.775 348.17 207.417 346.917C207.059 345.663 206.808 344.401 206.665 343.13C206.54 341.841 206.477 340.623 206.477 339.478C206.477 337.454 206.746 335.476 207.283 333.542C207.82 331.591 208.634 329.854 209.727 328.333C210.837 326.811 212.215 325.584 213.862 324.653C215.527 323.722 217.479 323.257 219.717 323.257C221.221 323.257 222.572 323.49 223.772 323.955C224.972 324.403 226.037 325.02 226.968 325.808C227.899 326.596 228.687 327.518 229.331 328.574C229.993 329.631 230.54 330.75 230.969 331.931C231.399 333.113 231.712 334.339 231.909 335.61C232.106 336.882 232.205 338.117 232.205 339.316ZM222.859 340.203C222.859 339.791 222.841 339.281 222.805 338.672C222.787 338.045 222.734 337.392 222.644 336.711C222.555 336.031 222.429 335.351 222.268 334.67C222.125 333.99 221.928 333.381 221.677 332.844C221.427 332.307 221.113 331.868 220.737 331.528C220.379 331.188 219.95 331.018 219.448 331.018C218.965 331.018 218.544 331.179 218.186 331.501C217.828 331.824 217.515 332.244 217.246 332.764C216.995 333.283 216.781 333.874 216.602 334.536C216.44 335.181 216.306 335.834 216.199 336.497C216.109 337.141 216.038 337.768 215.984 338.376C215.948 338.967 215.93 339.469 215.93 339.88C215.93 340.471 215.975 341.187 216.064 342.029C216.154 342.87 216.324 343.676 216.575 344.446C216.825 345.216 217.166 345.878 217.595 346.433C218.043 346.97 218.625 347.239 219.341 347.239C220.021 347.239 220.585 346.988 221.033 346.487C221.498 345.986 221.865 345.377 222.134 344.661C222.402 343.927 222.59 343.157 222.698 342.351C222.805 341.545 222.859 340.829 222.859 340.203ZM259.315 355.376C258.688 355.233 257.945 355.107 257.086 355C256.244 354.893 255.358 354.812 254.427 354.758C253.514 354.705 252.601 354.669 251.688 354.651C250.793 354.615 249.978 354.597 249.244 354.597C248.528 354.579 247.937 354.57 247.471 354.57C247.006 354.57 246.755 354.57 246.719 354.57C245.609 354.588 244.41 354.642 243.121 354.731C242.011 354.821 240.74 354.946 239.307 355.107C237.893 355.286 236.407 355.528 234.849 355.833C235.207 354.454 235.521 352.914 235.789 351.213C236.058 349.495 236.282 347.677 236.461 345.762C236.64 343.846 236.774 341.868 236.863 339.827C236.953 337.786 236.998 335.745 236.998 333.704C236.998 332.021 236.962 330.365 236.89 328.735C236.837 327.088 236.738 325.513 236.595 324.009C236.47 322.505 236.308 321.082 236.112 319.739C235.932 318.396 235.709 317.17 235.44 316.06C237.302 316.4 238.985 316.624 240.489 316.731C242.011 316.838 243.354 316.892 244.517 316.892C245.251 316.892 245.905 316.883 246.478 316.865C247.051 316.829 247.534 316.794 247.928 316.758C248.393 316.704 248.796 316.65 249.136 316.597C248.743 317.886 248.376 319.282 248.035 320.786C247.695 322.29 247.4 323.839 247.149 325.432C246.916 327.008 246.728 328.592 246.585 330.186C246.46 331.779 246.397 333.301 246.397 334.751C246.397 336.595 246.514 338.18 246.746 339.504C246.979 340.811 247.319 341.886 247.767 342.727C248.232 343.551 248.787 344.159 249.432 344.553C250.094 344.947 250.846 345.144 251.688 345.144C252.816 345.144 253.926 344.741 255.018 343.936C256.128 343.112 257.086 341.921 257.891 340.364L259.315 355.376ZM273.776 354.893C273.471 354.875 273.113 354.848 272.702 354.812C272.343 354.794 271.923 354.776 271.439 354.758C270.956 354.74 270.401 354.731 269.774 354.731C268.611 354.731 267.268 354.785 265.746 354.893C264.224 354.982 262.577 355.161 260.805 355.43C261.145 354.749 261.431 353.899 261.664 352.878C261.897 351.84 262.085 350.739 262.228 349.575C262.389 348.394 262.505 347.203 262.577 346.003C262.667 344.804 262.729 343.703 262.765 342.7C262.801 341.698 262.819 340.847 262.819 340.149C262.837 339.451 262.846 339.012 262.846 338.833C262.81 336.506 262.729 334.33 262.604 332.307C262.55 331.448 262.479 330.579 262.389 329.702C262.317 328.825 262.228 328.001 262.121 327.231C262.013 326.444 261.888 325.745 261.745 325.137C261.619 324.51 261.467 324.018 261.288 323.66C262.738 323.91 264.081 324.08 265.316 324.17C266.552 324.259 267.671 324.304 268.673 324.304C269.318 324.304 269.891 324.295 270.392 324.277C270.911 324.242 271.35 324.206 271.708 324.17C272.138 324.134 272.514 324.089 272.836 324.036C272.514 325.647 272.245 327.59 272.03 329.863C271.833 332.137 271.735 334.572 271.735 337.168C271.735 338.654 271.771 340.158 271.842 341.68C271.914 343.201 272.03 344.723 272.191 346.245C272.352 347.749 272.558 349.235 272.809 350.703C273.078 352.153 273.4 353.55 273.776 354.893ZM261.449 316.489C261.449 315.666 261.601 314.896 261.906 314.18C262.228 313.446 262.658 312.81 263.195 312.273C263.75 311.718 264.394 311.288 265.128 310.984C265.862 310.662 266.641 310.5 267.465 310.5C268.288 310.5 269.058 310.662 269.774 310.984C270.508 311.288 271.144 311.718 271.681 312.273C272.236 312.81 272.666 313.446 272.97 314.18C273.292 314.896 273.454 315.666 273.454 316.489C273.454 317.313 273.292 318.092 272.97 318.826C272.666 319.56 272.236 320.204 271.681 320.759C271.144 321.296 270.508 321.726 269.774 322.048C269.058 322.353 268.288 322.505 267.465 322.505C266.641 322.505 265.862 322.353 265.128 322.048C264.394 321.726 263.75 321.296 263.195 320.759C262.658 320.204 262.228 319.56 261.906 318.826C261.601 318.092 261.449 317.313 261.449 316.489ZM304.323 355.537C303.768 355.448 303.16 355.385 302.497 355.349C301.835 355.331 301.145 355.322 300.429 355.322C299.57 355.322 298.693 355.34 297.797 355.376C296.92 355.43 296.061 355.492 295.219 355.564C294.378 355.636 293.581 355.716 292.829 355.806C292.077 355.895 291.424 355.976 290.869 356.047C291.639 353.451 292.229 350.676 292.641 347.722C293.071 344.768 293.286 341.492 293.286 337.893C293.286 337.625 293.277 337.266 293.259 336.819C293.259 336.371 293.241 335.888 293.205 335.369C293.169 334.849 293.107 334.33 293.017 333.811C292.946 333.274 292.829 332.791 292.668 332.361C292.525 331.931 292.337 331.582 292.104 331.313C291.871 331.045 291.585 330.911 291.245 330.911C290.743 330.911 290.251 331.09 289.768 331.448C289.302 331.806 288.881 332.28 288.505 332.871C288.147 333.462 287.852 334.142 287.619 334.912C287.404 335.682 287.297 336.479 287.297 337.302C287.297 338.788 287.333 340.301 287.404 341.841C287.476 343.363 287.592 344.875 287.754 346.379C287.915 347.883 288.121 349.36 288.371 350.811C288.622 352.243 288.935 353.604 289.311 354.893C289.007 354.875 288.649 354.848 288.237 354.812C287.879 354.794 287.458 354.776 286.975 354.758C286.491 354.74 285.936 354.731 285.31 354.731C284.146 354.731 282.803 354.785 281.281 354.893C279.76 354.982 278.112 355.161 276.34 355.43C276.555 354.427 276.743 353.201 276.904 351.75C277.065 350.3 277.199 348.725 277.307 347.024C277.414 345.323 277.495 343.551 277.548 341.707C277.62 339.845 277.656 338.009 277.656 336.201C277.656 334.858 277.638 333.542 277.602 332.253C277.566 330.964 277.513 329.747 277.441 328.601C277.387 327.455 277.307 326.399 277.199 325.432C277.092 324.465 276.967 323.633 276.823 322.935C278.274 323.185 279.616 323.364 280.852 323.472C282.087 323.561 283.206 323.606 284.209 323.606C284.853 323.606 285.426 323.597 285.927 323.579C286.447 323.543 286.885 323.507 287.243 323.472C287.673 323.418 288.049 323.364 288.371 323.311C288.264 323.866 288.156 324.456 288.049 325.083C287.959 325.71 287.87 326.39 287.78 327.124C288.371 326.372 288.998 325.719 289.66 325.164C290.323 324.591 290.985 324.116 291.648 323.74C292.328 323.364 292.999 323.087 293.662 322.908C294.324 322.711 294.951 322.612 295.542 322.612C296.831 322.612 297.941 322.881 298.872 323.418C299.821 323.937 300.599 324.761 301.208 325.889C301.835 327.017 302.3 328.458 302.605 330.212C302.909 331.967 303.061 334.071 303.061 336.523C303.061 338.206 303.061 339.916 303.061 341.653C303.079 343.389 303.124 345.09 303.195 346.755C303.267 348.42 303.392 350.005 303.571 351.509C303.75 352.995 304.001 354.338 304.323 355.537ZM332.481 355.779C330.458 355.618 328.703 355.537 327.217 355.537C325.928 355.537 324.836 355.573 323.941 355.645C323.063 355.734 322.347 355.824 321.792 355.913C321.148 356.021 320.629 356.137 320.235 356.262C320.378 355.349 320.485 354.508 320.557 353.738C320.629 352.968 320.664 352.144 320.664 351.267C320.664 349.692 320.602 348.385 320.476 347.346C320.351 346.29 320.172 345.404 319.939 344.688C319.707 343.971 319.429 343.389 319.107 342.942C318.784 342.494 318.426 342.091 318.033 341.733C317.997 342.378 317.97 343.022 317.952 343.667C317.934 344.294 317.925 344.938 317.925 345.601C317.925 346.943 317.997 348.403 318.14 349.978C318.283 351.536 318.579 353.353 319.026 355.43C318.489 355.394 317.88 355.349 317.2 355.295C316.627 355.26 315.938 355.224 315.132 355.188C314.326 355.17 313.44 355.161 312.473 355.161C311.507 355.161 310.477 355.179 309.385 355.215C308.311 355.251 307.192 355.322 306.028 355.43C306.386 354.875 306.7 354.141 306.968 353.228C307.255 352.314 307.496 351.294 307.693 350.166C307.89 349.02 308.051 347.803 308.177 346.514C308.32 345.225 308.427 343.927 308.499 342.62C308.588 341.295 308.651 339.997 308.687 338.726C308.723 337.454 308.741 336.264 308.741 335.154C308.741 333.668 308.714 332.146 308.66 330.588C308.606 329.031 308.535 327.509 308.445 326.023C308.356 324.537 308.248 323.123 308.123 321.78C307.998 320.437 307.872 319.229 307.747 318.154C307.622 317.062 307.487 316.149 307.344 315.415C307.219 314.681 307.093 314.18 306.968 313.911C308.114 314.019 309.304 314.072 310.54 314.072C312.097 314.072 313.637 314.001 315.159 313.857C316.699 313.696 318.167 313.481 319.563 313.213C319.348 313.84 319.151 314.654 318.972 315.657C318.793 316.641 318.632 317.743 318.489 318.96C318.364 320.16 318.247 321.44 318.14 322.8C318.05 324.143 317.97 325.495 317.898 326.855C317.827 328.198 317.773 329.505 317.737 330.776C317.719 332.048 317.71 333.211 317.71 334.268C317.71 334.984 317.719 335.628 317.737 336.201C317.755 336.774 317.782 337.266 317.818 337.678C319.053 336.103 320.011 334.581 320.691 333.113C321.372 331.627 321.712 330.159 321.712 328.708C321.712 327.33 321.345 325.933 320.611 324.519C321.291 324.591 321.989 324.644 322.705 324.68C323.422 324.698 324.12 324.707 324.8 324.707C326.089 324.707 327.369 324.662 328.64 324.573C329.912 324.465 331.192 324.286 332.481 324.036C331.979 324.788 331.559 325.629 331.219 326.56C330.896 327.473 330.637 328.359 330.44 329.219C330.207 330.203 330.01 331.206 329.849 332.227C329.688 333.211 329.419 334.16 329.043 335.073C328.882 335.467 328.685 335.87 328.452 336.282C328.238 336.676 327.969 337.069 327.647 337.463C327.342 337.839 326.993 338.197 326.599 338.538C326.206 338.86 325.767 339.137 325.283 339.37C326.322 339.782 327.11 340.301 327.647 340.928C328.202 341.554 328.614 342.262 328.882 343.049C329.151 343.819 329.339 344.67 329.446 345.601C329.554 346.514 329.688 347.48 329.849 348.501C330.01 349.342 330.216 350.193 330.467 351.052C330.681 351.786 330.95 352.583 331.272 353.442C331.612 354.284 332.015 355.063 332.481 355.779Z" fill="#F27D16"/>
<path d="M87.9043 334.805C86.4362 338.439 85.7021 341.966 85.7021 345.386C85.7021 347.033 85.8543 348.698 86.1587 350.381C86.4631 352.046 86.9375 353.747 87.582 355.483C86.5615 355.233 85.6126 355.045 84.7354 354.919C83.8581 354.794 82.9897 354.731 82.1304 354.731C81.2173 354.731 80.2863 354.812 79.3374 354.973C78.3885 355.134 77.359 355.385 76.249 355.725L77.3501 351.428C76.992 352.001 76.5623 352.592 76.061 353.201C75.5597 353.792 74.96 354.329 74.2617 354.812C73.5814 355.295 72.7936 355.689 71.8984 355.994C71.0212 356.316 70.0096 356.477 68.8638 356.477C67.145 356.477 65.5605 356.065 64.1104 355.242C62.6781 354.418 61.4427 353.228 60.4043 351.67C59.3659 350.112 58.5513 348.206 57.9604 345.95C57.3875 343.676 57.1011 341.098 57.1011 338.215C57.1011 336.3 57.2801 334.402 57.6382 332.522C57.9963 330.624 58.5155 328.825 59.1958 327.124C59.8761 325.405 60.7176 323.821 61.7202 322.371C62.7228 320.903 63.8597 319.64 65.1309 318.584C66.402 317.51 67.8075 316.677 69.3472 316.086C70.9048 315.478 72.5788 315.173 74.3691 315.173C75.9984 315.173 77.4217 315.343 78.6392 315.684C79.8566 316.006 80.9129 316.444 81.8081 317C82.7033 317.537 83.4373 318.163 84.0103 318.879C84.6011 319.578 85.0666 320.312 85.4067 321.082C85.7469 321.851 85.9886 322.621 86.1318 323.391C86.2751 324.143 86.3467 324.85 86.3467 325.513C86.3467 326.462 86.1766 327.375 85.8364 328.252C85.5142 329.129 85.0576 329.899 84.4668 330.562C83.876 331.224 83.1777 331.752 82.3721 332.146C81.5664 332.54 80.6802 332.737 79.7134 332.737C78.7108 332.737 77.8424 332.585 77.1084 332.28C76.3743 331.976 75.7656 331.582 75.2822 331.099C74.7988 330.597 74.4318 330.042 74.1812 329.434C73.9484 328.825 73.832 328.216 73.832 327.607C73.832 327.088 73.9215 326.56 74.1006 326.023C74.2796 325.486 74.5303 324.985 74.8525 324.519C74.96 324.895 75.1121 325.19 75.3091 325.405C75.506 325.602 75.703 325.745 75.8999 325.835C76.1147 325.942 76.3564 326.005 76.625 326.023C77.2337 326.023 77.6634 325.871 77.9141 325.566C78.1826 325.262 78.3169 324.913 78.3169 324.519C78.3169 324.34 78.2721 324.161 78.1826 323.982C78.111 323.785 77.9946 323.606 77.8335 323.445C77.6724 323.284 77.4575 323.149 77.189 323.042C76.9383 322.935 76.625 322.881 76.249 322.881C75.9984 322.881 75.6493 322.935 75.2017 323.042C74.772 323.132 74.2975 323.319 73.7783 323.606C73.277 323.892 72.7668 324.304 72.2476 324.841C71.7284 325.361 71.2539 326.059 70.8242 326.936C70.3945 327.813 70.0454 328.888 69.7769 330.159C69.5083 331.43 69.374 332.943 69.374 334.697C69.374 336.147 69.4904 337.419 69.7231 338.511C69.9738 339.603 70.314 340.516 70.7437 341.25C71.1733 341.984 71.6836 342.539 72.2744 342.915C72.8652 343.273 73.5098 343.452 74.208 343.452C74.8704 343.452 75.4165 343.282 75.8462 342.942C76.2759 342.602 76.616 342.19 76.8667 341.707C77.1174 341.223 77.2874 340.722 77.377 340.203C77.4665 339.683 77.5112 339.245 77.5112 338.887C77.5112 338.869 77.4933 338.743 77.4575 338.511C77.4396 338.278 77.359 338.009 77.2158 337.705C77.0726 337.401 76.8398 337.087 76.5176 336.765C76.1953 336.443 75.7388 336.174 75.1479 335.959C77.2606 335.959 79.3822 335.87 81.5127 335.691C83.6432 335.494 85.7738 335.199 87.9043 334.805ZM117.915 355.376C117.575 355.34 117.181 355.304 116.733 355.269C116.357 355.233 115.901 355.206 115.363 355.188C114.844 355.17 114.271 355.161 113.645 355.161C112.75 355.161 111.765 355.197 110.691 355.269C109.634 355.34 108.542 355.474 107.414 355.671L107.522 348.125C106.841 350.793 105.839 352.852 104.514 354.302C103.207 355.752 101.667 356.477 99.8947 356.477C99.3397 356.477 98.7131 356.405 98.0148 356.262C97.3166 356.119 96.6005 355.841 95.8664 355.43C95.1503 355.036 94.4431 354.481 93.7448 353.765C93.0645 353.049 92.4558 352.126 91.9187 350.999C91.3815 349.853 90.9519 348.474 90.6296 346.863C90.3073 345.234 90.1462 343.309 90.1462 341.089C90.1462 338.081 90.4506 335.512 91.0593 333.381C91.668 331.233 92.4468 329.478 93.3957 328.118C94.3446 326.757 95.392 325.763 96.5378 325.137C97.6836 324.51 98.8026 324.197 99.8947 324.197C100.826 324.197 101.667 324.331 102.419 324.6C103.189 324.85 103.869 325.181 104.46 325.593C105.051 325.987 105.561 326.435 105.991 326.936C106.421 327.437 106.77 327.939 107.038 328.44C106.985 327.831 106.904 327.187 106.797 326.506C106.689 325.808 106.564 325.092 106.421 324.358C107.584 324.591 108.766 324.743 109.966 324.814C111.165 324.886 112.275 324.922 113.296 324.922C114.513 324.922 115.498 324.895 116.25 324.841C116.679 324.823 117.073 324.797 117.431 324.761C117.234 325.656 117.055 326.659 116.894 327.769C116.733 328.879 116.59 330.069 116.465 331.34C116.357 332.594 116.268 333.918 116.196 335.315C116.142 336.694 116.115 338.108 116.115 339.558C116.115 342.262 116.25 344.974 116.518 347.695C116.787 350.417 117.252 352.977 117.915 355.376ZM106.877 339.988V335.637C106.877 335.154 106.85 334.661 106.797 334.16C106.743 333.659 106.618 333.202 106.421 332.791C106.242 332.379 105.973 332.048 105.615 331.797C105.257 331.528 104.773 331.394 104.165 331.394C103.52 331.394 102.983 331.618 102.553 332.065C102.142 332.513 101.801 333.131 101.533 333.918C101.282 334.688 101.103 335.61 100.996 336.685C100.906 337.741 100.862 338.896 100.862 340.149C100.862 340.865 100.906 341.59 100.996 342.324C101.103 343.058 101.273 343.73 101.506 344.338C101.739 344.929 102.052 345.413 102.446 345.789C102.84 346.165 103.323 346.353 103.896 346.353C104.541 346.353 105.06 346.129 105.454 345.681C105.848 345.234 106.143 344.679 106.34 344.016C106.555 343.354 106.698 342.664 106.77 341.948C106.841 341.214 106.877 340.561 106.877 339.988ZM148.65 355.537C148.095 355.448 147.487 355.385 146.824 355.349C146.162 355.331 145.472 355.322 144.756 355.322C143.897 355.322 143.02 355.34 142.124 355.376C141.247 355.43 140.388 355.492 139.546 355.564C138.705 355.636 137.908 355.716 137.156 355.806C136.404 355.895 135.751 355.976 135.196 356.047C135.966 353.451 136.556 350.676 136.968 347.722C137.398 344.768 137.613 341.492 137.613 337.893C137.613 337.625 137.604 337.266 137.586 336.819C137.586 336.371 137.568 335.888 137.532 335.369C137.496 334.849 137.434 334.33 137.344 333.811C137.273 333.274 137.156 332.791 136.995 332.361C136.852 331.931 136.664 331.582 136.431 331.313C136.198 331.045 135.912 330.911 135.572 330.911C135.07 330.911 134.578 331.09 134.095 331.448C133.629 331.806 133.208 332.28 132.832 332.871C132.474 333.462 132.179 334.142 131.946 334.912C131.731 335.682 131.624 336.479 131.624 337.302C131.624 338.788 131.66 340.301 131.731 341.841C131.803 343.363 131.919 344.875 132.08 346.379C132.242 347.883 132.447 349.36 132.698 350.811C132.949 352.243 133.262 353.604 133.638 354.893C133.334 354.875 132.976 354.848 132.564 354.812C132.206 354.794 131.785 354.776 131.302 354.758C130.818 354.74 130.263 354.731 129.637 354.731C128.473 354.731 127.13 354.785 125.608 354.893C124.086 354.982 122.439 355.161 120.667 355.43C120.882 354.427 121.07 353.201 121.231 351.75C121.392 350.3 121.526 348.725 121.634 347.024C121.741 345.323 121.822 343.551 121.875 341.707C121.947 339.845 121.983 338.009 121.983 336.201C121.983 334.858 121.965 333.542 121.929 332.253C121.893 330.964 121.84 329.747 121.768 328.601C121.714 327.455 121.634 326.399 121.526 325.432C121.419 324.465 121.294 323.633 121.15 322.935C122.6 323.185 123.943 323.364 125.179 323.472C126.414 323.561 127.533 323.606 128.536 323.606C129.18 323.606 129.753 323.597 130.254 323.579C130.774 323.543 131.212 323.507 131.57 323.472C132 323.418 132.376 323.364 132.698 323.311C132.591 323.866 132.483 324.456 132.376 325.083C132.286 325.71 132.197 326.39 132.107 327.124C132.698 326.372 133.325 325.719 133.987 325.164C134.65 324.591 135.312 324.116 135.975 323.74C136.655 323.364 137.326 323.087 137.989 322.908C138.651 322.711 139.278 322.612 139.869 322.612C141.158 322.612 142.268 322.881 143.199 323.418C144.148 323.937 144.926 324.761 145.535 325.889C146.162 327.017 146.627 328.458 146.932 330.212C147.236 331.967 147.388 334.071 147.388 336.523C147.388 338.206 147.388 339.916 147.388 341.653C147.406 343.389 147.451 345.09 147.522 346.755C147.594 348.42 147.719 350.005 147.898 351.509C148.077 352.995 148.328 354.338 148.65 355.537ZM178.902 355.376C178.562 355.34 178.168 355.304 177.721 355.269C177.345 355.233 176.888 355.206 176.351 355.188C175.832 355.17 175.259 355.161 174.632 355.161C173.737 355.161 172.753 355.197 171.678 355.269C170.622 355.34 169.53 355.474 168.402 355.671L168.509 348.125C167.829 350.793 166.826 352.852 165.502 354.302C164.195 355.752 162.655 356.477 160.882 356.477C160.327 356.477 159.701 356.405 159.003 356.262C158.304 356.119 157.588 355.841 156.854 355.43C156.138 355.036 155.431 354.481 154.733 353.765C154.052 353.049 153.443 352.126 152.906 350.999C152.369 349.853 151.94 348.474 151.617 346.863C151.295 345.234 151.134 343.309 151.134 341.089C151.134 338.081 151.438 335.512 152.047 333.381C152.656 331.233 153.435 329.478 154.383 328.118C155.332 326.757 156.38 325.763 157.525 325.137C158.671 324.51 159.79 324.197 160.882 324.197C161.813 324.197 162.655 324.331 163.407 324.6C164.177 324.85 164.857 325.181 165.448 325.593C166.039 325.987 166.549 326.435 166.979 326.936C167.408 327.437 167.757 327.939 168.026 328.44C167.972 327.831 167.892 327.187 167.784 326.506C167.677 325.808 167.552 325.092 167.408 324.358C168.572 324.591 169.754 324.743 170.953 324.814C172.153 324.886 173.263 324.922 174.283 324.922C175.501 324.922 176.485 324.895 177.237 324.841C177.667 324.823 178.061 324.797 178.419 324.761C178.222 325.656 178.043 326.659 177.882 327.769C177.721 328.879 177.578 330.069 177.452 331.34C177.345 332.594 177.255 333.918 177.184 335.315C177.13 336.694 177.103 338.108 177.103 339.558C177.103 342.262 177.237 344.974 177.506 347.695C177.775 350.417 178.24 352.977 178.902 355.376ZM167.865 339.988V335.637C167.865 335.154 167.838 334.661 167.784 334.16C167.731 333.659 167.605 333.202 167.408 332.791C167.229 332.379 166.961 332.048 166.603 331.797C166.245 331.528 165.761 331.394 165.152 331.394C164.508 331.394 163.971 331.618 163.541 332.065C163.129 332.513 162.789 333.131 162.521 333.918C162.27 334.688 162.091 335.61 161.983 336.685C161.894 337.741 161.849 338.896 161.849 340.149C161.849 340.865 161.894 341.59 161.983 342.324C162.091 343.058 162.261 343.73 162.494 344.338C162.726 344.929 163.04 345.413 163.434 345.789C163.828 346.165 164.311 346.353 164.884 346.353C165.528 346.353 166.048 346.129 166.442 345.681C166.835 345.234 167.131 344.679 167.328 344.016C167.543 343.354 167.686 342.664 167.757 341.948C167.829 341.214 167.865 340.561 167.865 339.988ZM209.262 355.376C208.85 355.34 208.385 355.304 207.866 355.269C207.418 355.233 206.89 355.206 206.281 355.188C205.69 355.17 205.037 355.161 204.321 355.161C203.3 355.161 202.217 355.197 201.071 355.269C199.925 355.34 198.788 355.474 197.66 355.671C197.768 355.457 197.884 355.009 198.01 354.329C198.135 353.648 198.251 352.896 198.359 352.073C198.484 351.249 198.591 350.435 198.681 349.629C198.788 348.823 198.869 348.197 198.923 347.749C198.636 349.092 198.233 350.318 197.714 351.428C197.213 352.52 196.622 353.46 195.942 354.248C195.261 355.018 194.5 355.618 193.659 356.047C192.818 356.477 191.931 356.692 191 356.692C190.571 356.692 190.042 356.665 189.416 356.611C188.789 356.558 188.118 356.379 187.402 356.074C186.703 355.77 185.996 355.304 185.28 354.678C184.582 354.033 183.946 353.138 183.373 351.992C182.818 350.828 182.362 349.36 182.004 347.588C181.664 345.815 181.493 343.649 181.493 341.089C181.493 338.94 181.646 337.025 181.95 335.342C182.272 333.641 182.693 332.146 183.212 330.857C183.749 329.568 184.367 328.476 185.065 327.581C185.781 326.667 186.524 325.924 187.294 325.352C188.082 324.779 188.879 324.367 189.684 324.116C190.508 323.848 191.296 323.713 192.048 323.713C192.889 323.713 193.65 323.857 194.33 324.143C195.011 324.412 195.628 324.77 196.183 325.217C196.738 325.647 197.222 326.148 197.634 326.721C198.045 327.276 198.403 327.831 198.708 328.386C198.672 327.563 198.636 326.667 198.6 325.701C198.565 324.734 198.52 323.758 198.466 322.773C198.412 321.789 198.341 320.822 198.251 319.873C198.18 318.906 198.09 318.011 197.983 317.188C197.893 316.364 197.786 315.639 197.66 315.012C197.535 314.386 197.392 313.911 197.231 313.589C198.663 313.84 199.997 314.01 201.232 314.099C202.468 314.189 203.587 314.233 204.589 314.233C205.234 314.233 205.816 314.224 206.335 314.207C206.854 314.171 207.293 314.135 207.651 314.099C208.08 314.063 208.456 314.019 208.779 313.965C208.582 314.86 208.403 316.033 208.242 317.483C208.08 318.915 207.937 320.535 207.812 322.344C207.704 324.152 207.615 326.095 207.543 328.171C207.49 330.23 207.463 332.334 207.463 334.482C207.463 336.47 207.49 338.448 207.543 340.417C207.615 342.387 207.722 344.285 207.866 346.111C208.009 347.919 208.197 349.62 208.429 351.213C208.662 352.789 208.94 354.176 209.262 355.376ZM198.224 339.988V335.637C198.224 335.154 198.198 334.661 198.144 334.16C198.09 333.659 197.965 333.202 197.768 332.791C197.589 332.379 197.32 332.048 196.962 331.797C196.604 331.528 196.121 331.394 195.512 331.394C195.082 331.394 194.715 331.564 194.411 331.904C194.107 332.244 193.856 332.683 193.659 333.22C193.462 333.757 193.301 334.357 193.176 335.02C193.05 335.682 192.961 336.344 192.907 337.007C192.853 337.651 192.818 338.26 192.8 338.833C192.782 339.388 192.773 339.827 192.773 340.149C192.773 340.632 192.791 341.232 192.826 341.948C192.88 342.646 192.988 343.327 193.149 343.989C193.31 344.634 193.552 345.189 193.874 345.654C194.214 346.12 194.671 346.353 195.243 346.353C195.888 346.353 196.407 346.129 196.801 345.681C197.195 345.234 197.49 344.679 197.687 344.016C197.902 343.354 198.045 342.664 198.117 341.948C198.189 341.214 198.224 340.561 198.224 339.988ZM237.205 339.316C237.205 340.355 237.124 341.501 236.963 342.754C236.802 343.989 236.533 345.243 236.157 346.514C235.781 347.767 235.271 348.993 234.626 350.193C233.982 351.375 233.176 352.422 232.209 353.335C231.261 354.248 230.124 354.982 228.799 355.537C227.474 356.092 225.934 356.37 224.18 356.37C222.425 356.37 220.885 356.11 219.561 355.591C218.254 355.072 217.126 354.382 216.177 353.523C215.246 352.646 214.476 351.643 213.867 350.515C213.258 349.369 212.775 348.17 212.417 346.917C212.059 345.663 211.808 344.401 211.665 343.13C211.54 341.841 211.477 340.623 211.477 339.478C211.477 337.454 211.746 335.476 212.283 333.542C212.82 331.591 213.634 329.854 214.727 328.333C215.837 326.811 217.215 325.584 218.862 324.653C220.527 323.722 222.479 323.257 224.717 323.257C226.221 323.257 227.572 323.49 228.772 323.955C229.972 324.403 231.037 325.02 231.968 325.808C232.899 326.596 233.687 327.518 234.331 328.574C234.993 329.631 235.54 330.75 235.969 331.931C236.399 333.113 236.712 334.339 236.909 335.61C237.106 336.882 237.205 338.117 237.205 339.316ZM227.859 340.203C227.859 339.791 227.841 339.281 227.805 338.672C227.787 338.045 227.734 337.392 227.644 336.711C227.555 336.031 227.429 335.351 227.268 334.67C227.125 333.99 226.928 333.381 226.677 332.844C226.427 332.307 226.113 331.868 225.737 331.528C225.379 331.188 224.95 331.018 224.448 331.018C223.965 331.018 223.544 331.179 223.186 331.501C222.828 331.824 222.515 332.244 222.246 332.764C221.995 333.283 221.781 333.874 221.602 334.536C221.44 335.181 221.306 335.834 221.199 336.497C221.109 337.141 221.038 337.768 220.984 338.376C220.948 338.967 220.93 339.469 220.93 339.88C220.93 340.471 220.975 341.187 221.064 342.029C221.154 342.87 221.324 343.676 221.575 344.446C221.825 345.216 222.166 345.878 222.595 346.433C223.043 346.97 223.625 347.239 224.341 347.239C225.021 347.239 225.585 346.988 226.033 346.487C226.498 345.986 226.865 345.377 227.134 344.661C227.402 343.927 227.59 343.157 227.698 342.351C227.805 341.545 227.859 340.829 227.859 340.203ZM264.315 355.376C263.688 355.233 262.945 355.107 262.086 355C261.244 354.893 260.358 354.812 259.427 354.758C258.514 354.705 257.601 354.669 256.688 354.651C255.793 354.615 254.978 354.597 254.244 354.597C253.528 354.579 252.937 354.57 252.471 354.57C252.006 354.57 251.755 354.57 251.719 354.57C250.609 354.588 249.41 354.642 248.121 354.731C247.011 354.821 245.74 354.946 244.307 355.107C242.893 355.286 241.407 355.528 239.849 355.833C240.207 354.454 240.521 352.914 240.789 351.213C241.058 349.495 241.282 347.677 241.461 345.762C241.64 343.846 241.774 341.868 241.863 339.827C241.953 337.786 241.998 335.745 241.998 333.704C241.998 332.021 241.962 330.365 241.89 328.735C241.837 327.088 241.738 325.513 241.595 324.009C241.47 322.505 241.308 321.082 241.112 319.739C240.932 318.396 240.709 317.17 240.44 316.06C242.302 316.4 243.985 316.624 245.489 316.731C247.011 316.838 248.354 316.892 249.517 316.892C250.251 316.892 250.905 316.883 251.478 316.865C252.051 316.829 252.534 316.794 252.928 316.758C253.393 316.704 253.796 316.65 254.136 316.597C253.743 317.886 253.376 319.282 253.035 320.786C252.695 322.29 252.4 323.839 252.149 325.432C251.916 327.008 251.728 328.592 251.585 330.186C251.46 331.779 251.397 333.301 251.397 334.751C251.397 336.595 251.514 338.18 251.746 339.504C251.979 340.811 252.319 341.886 252.767 342.727C253.232 343.551 253.787 344.159 254.432 344.553C255.094 344.947 255.846 345.144 256.688 345.144C257.816 345.144 258.926 344.741 260.018 343.936C261.128 343.112 262.086 341.921 262.891 340.364L264.315 355.376ZM278.776 354.893C278.471 354.875 278.113 354.848 277.702 354.812C277.343 354.794 276.923 354.776 276.439 354.758C275.956 354.74 275.401 354.731 274.774 354.731C273.611 354.731 272.268 354.785 270.746 354.893C269.224 354.982 267.577 355.161 265.805 355.43C266.145 354.749 266.431 353.899 266.664 352.878C266.897 351.84 267.085 350.739 267.228 349.575C267.389 348.394 267.505 347.203 267.577 346.003C267.667 344.804 267.729 343.703 267.765 342.7C267.801 341.698 267.819 340.847 267.819 340.149C267.837 339.451 267.846 339.012 267.846 338.833C267.81 336.506 267.729 334.33 267.604 332.307C267.55 331.448 267.479 330.579 267.389 329.702C267.317 328.825 267.228 328.001 267.121 327.231C267.013 326.444 266.888 325.745 266.745 325.137C266.619 324.51 266.467 324.018 266.288 323.66C267.738 323.91 269.081 324.08 270.316 324.17C271.552 324.259 272.671 324.304 273.673 324.304C274.318 324.304 274.891 324.295 275.392 324.277C275.911 324.242 276.35 324.206 276.708 324.17C277.138 324.134 277.514 324.089 277.836 324.036C277.514 325.647 277.245 327.59 277.03 329.863C276.833 332.137 276.735 334.572 276.735 337.168C276.735 338.654 276.771 340.158 276.842 341.68C276.914 343.201 277.03 344.723 277.191 346.245C277.352 347.749 277.558 349.235 277.809 350.703C278.078 352.153 278.4 353.55 278.776 354.893ZM266.449 316.489C266.449 315.666 266.601 314.896 266.906 314.18C267.228 313.446 267.658 312.81 268.195 312.273C268.75 311.718 269.394 311.288 270.128 310.984C270.862 310.662 271.641 310.5 272.465 310.5C273.288 310.5 274.058 310.662 274.774 310.984C275.508 311.288 276.144 311.718 276.681 312.273C277.236 312.81 277.666 313.446 277.97 314.18C278.292 314.896 278.454 315.666 278.454 316.489C278.454 317.313 278.292 318.092 277.97 318.826C277.666 319.56 277.236 320.204 276.681 320.759C276.144 321.296 275.508 321.726 274.774 322.048C274.058 322.353 273.288 322.505 272.465 322.505C271.641 322.505 270.862 322.353 270.128 322.048C269.394 321.726 268.75 321.296 268.195 320.759C267.658 320.204 267.228 319.56 266.906 318.826C266.601 318.092 266.449 317.313 266.449 316.489ZM309.323 355.537C308.768 355.448 308.16 355.385 307.497 355.349C306.835 355.331 306.145 355.322 305.429 355.322C304.57 355.322 303.693 355.34 302.797 355.376C301.92 355.43 301.061 355.492 300.219 355.564C299.378 355.636 298.581 355.716 297.829 355.806C297.077 355.895 296.424 355.976 295.869 356.047C296.639 353.451 297.229 350.676 297.641 347.722C298.071 344.768 298.286 341.492 298.286 337.893C298.286 337.625 298.277 337.266 298.259 336.819C298.259 336.371 298.241 335.888 298.205 335.369C298.169 334.849 298.107 334.33 298.017 333.811C297.946 333.274 297.829 332.791 297.668 332.361C297.525 331.931 297.337 331.582 297.104 331.313C296.871 331.045 296.585 330.911 296.245 330.911C295.743 330.911 295.251 331.09 294.768 331.448C294.302 331.806 293.881 332.28 293.505 332.871C293.147 333.462 292.852 334.142 292.619 334.912C292.404 335.682 292.297 336.479 292.297 337.302C292.297 338.788 292.333 340.301 292.404 341.841C292.476 343.363 292.592 344.875 292.754 346.379C292.915 347.883 293.121 349.36 293.371 350.811C293.622 352.243 293.935 353.604 294.311 354.893C294.007 354.875 293.649 354.848 293.237 354.812C292.879 354.794 292.458 354.776 291.975 354.758C291.491 354.74 290.936 354.731 290.31 354.731C289.146 354.731 287.803 354.785 286.281 354.893C284.76 354.982 283.112 355.161 281.34 355.43C281.555 354.427 281.743 353.201 281.904 351.75C282.065 350.3 282.199 348.725 282.307 347.024C282.414 345.323 282.495 343.551 282.548 341.707C282.62 339.845 282.656 338.009 282.656 336.201C282.656 334.858 282.638 333.542 282.602 332.253C282.566 330.964 282.513 329.747 282.441 328.601C282.387 327.455 282.307 326.399 282.199 325.432C282.092 324.465 281.967 323.633 281.823 322.935C283.274 323.185 284.616 323.364 285.852 323.472C287.087 323.561 288.206 323.606 289.209 323.606C289.853 323.606 290.426 323.597 290.927 323.579C291.447 323.543 291.885 323.507 292.243 323.472C292.673 323.418 293.049 323.364 293.371 323.311C293.264 323.866 293.156 324.456 293.049 325.083C292.959 325.71 292.87 326.39 292.78 327.124C293.371 326.372 293.998 325.719 294.66 325.164C295.323 324.591 295.985 324.116 296.648 323.74C297.328 323.364 297.999 323.087 298.662 322.908C299.324 322.711 299.951 322.612 300.542 322.612C301.831 322.612 302.941 322.881 303.872 323.418C304.821 323.937 305.599 324.761 306.208 325.889C306.835 327.017 307.3 328.458 307.605 330.212C307.909 331.967 308.061 334.071 308.061 336.523C308.061 338.206 308.061 339.916 308.061 341.653C308.079 343.389 308.124 345.09 308.195 346.755C308.267 348.42 308.392 350.005 308.571 351.509C308.75 352.995 309.001 354.338 309.323 355.537ZM337.481 355.779C335.458 355.618 333.703 355.537 332.217 355.537C330.928 355.537 329.836 355.573 328.941 355.645C328.063 355.734 327.347 355.824 326.792 355.913C326.148 356.021 325.629 356.137 325.235 356.262C325.378 355.349 325.485 354.508 325.557 353.738C325.629 352.968 325.664 352.144 325.664 351.267C325.664 349.692 325.602 348.385 325.476 347.346C325.351 346.29 325.172 345.404 324.939 344.688C324.707 343.971 324.429 343.389 324.107 342.942C323.784 342.494 323.426 342.091 323.033 341.733C322.997 342.378 322.97 343.022 322.952 343.667C322.934 344.294 322.925 344.938 322.925 345.601C322.925 346.943 322.997 348.403 323.14 349.978C323.283 351.536 323.579 353.353 324.026 355.43C323.489 355.394 322.88 355.349 322.2 355.295C321.627 355.26 320.938 355.224 320.132 355.188C319.326 355.17 318.44 355.161 317.473 355.161C316.507 355.161 315.477 355.179 314.385 355.215C313.311 355.251 312.192 355.322 311.028 355.43C311.386 354.875 311.7 354.141 311.968 353.228C312.255 352.314 312.496 351.294 312.693 350.166C312.89 349.02 313.051 347.803 313.177 346.514C313.32 345.225 313.427 343.927 313.499 342.62C313.588 341.295 313.651 339.997 313.687 338.726C313.723 337.454 313.741 336.264 313.741 335.154C313.741 333.668 313.714 332.146 313.66 330.588C313.606 329.031 313.535 327.509 313.445 326.023C313.356 324.537 313.248 323.123 313.123 321.78C312.998 320.437 312.872 319.229 312.747 318.154C312.622 317.062 312.487 316.149 312.344 315.415C312.219 314.681 312.093 314.18 311.968 313.911C313.114 314.019 314.304 314.072 315.54 314.072C317.097 314.072 318.637 314.001 320.159 313.857C321.699 313.696 323.167 313.481 324.563 313.213C324.348 313.84 324.151 314.654 323.972 315.657C323.793 316.641 323.632 317.743 323.489 318.96C323.364 320.16 323.247 321.44 323.14 322.8C323.05 324.143 322.97 325.495 322.898 326.855C322.827 328.198 322.773 329.505 322.737 330.776C322.719 332.048 322.71 333.211 322.71 334.268C322.71 334.984 322.719 335.628 322.737 336.201C322.755 336.774 322.782 337.266 322.818 337.678C324.053 336.103 325.011 334.581 325.691 333.113C326.372 331.627 326.712 330.159 326.712 328.708C326.712 327.33 326.345 325.933 325.611 324.519C326.291 324.591 326.989 324.644 327.705 324.68C328.422 324.698 329.12 324.707 329.8 324.707C331.089 324.707 332.369 324.662 333.64 324.573C334.912 324.465 336.192 324.286 337.481 324.036C336.979 324.788 336.559 325.629 336.219 326.56C335.896 327.473 335.637 328.359 335.44 329.219C335.207 330.203 335.01 331.206 334.849 332.227C334.688 333.211 334.419 334.16 334.043 335.073C333.882 335.467 333.685 335.87 333.452 336.282C333.238 336.676 332.969 337.069 332.647 337.463C332.342 337.839 331.993 338.197 331.599 338.538C331.206 338.86 330.767 339.137 330.283 339.37C331.322 339.782 332.11 340.301 332.647 340.928C333.202 341.554 333.614 342.262 333.882 343.049C334.151 343.819 334.339 344.67 334.446 345.601C334.554 346.514 334.688 347.48 334.849 348.501C335.01 349.342 335.216 350.193 335.467 351.052C335.681 351.786 335.95 352.583 336.272 353.442C336.612 354.284 337.015 355.063 337.481 355.779Z" fill="#F27D16" fill-opacity="0.24"/>
<g filter="url(#filter0_f_245_192)">
<path fill-rule="evenodd" clip-rule="evenodd" d="M167.781 258.562C203.281 253.19 244.07 241.329 271.859 260.582C300.405 280.357 299.716 316.795 296.431 347.687C293.467 375.559 278.948 401.16 254.847 420.555C231.252 439.543 199.141 459.07 167.781 451.218C137.912 443.74 134.835 410.3 120.812 386.996C113.111 374.199 109.029 361.705 105.482 347.687C100.249 327.008 82.818 305.499 95.5714 287.254C109.558 267.244 140.524 262.686 167.781 258.562Z" fill="#F27D16" fill-opacity="0.6"/>
</g>
<defs>
<filter id="filter0_f_245_192" x="-159" y="0" width="707" height="703" filterUnits="userSpaceOnUse" color-interpolation-filters="sRGB">
<feFlood flood-opacity="0" result="BackgroundImageFix"/>
<feBlend mode="normal" in="SourceGraphic" in2="BackgroundImageFix" result="shape"/>
<feGaussianBlur stdDeviation="125" result="effect1_foregroundBlur_245_192"/>
</filter>
</defs>
</svg>
